# xmcd CD database file
#
# Track frame offsets:
#	150
#	10357
#	26057
#	38386
#	52572
#	64691
#	79133
#	93769
#	106513
#	118407
#	132534
#	140388
#	153725
#	167439
#	179893
#	195084
#	205661
#	217784
#
# Disc length: 3118 seconds
#
# Revision: 0
# Processed by: cddbd v1.5.2PL0 Copyright (c) Steve Scherf et al.
# Submitted via: CDex 1.79
#
DISCID=e30c2c12
DTITLE=Fats Waller - Jazz Giants CD3
DYEAR=2004
DGENRE=Jazz
TTITLE0=I'm Crazy About My Baby
TTITLE1=Good For Nothin' But Love
TTITLE2=Clarinet Marmalade
TTITLE3=Squeeze Me
TTITLE4=I Wish I Were Twins
TTITLE5=Do Me A Favor
TTITLE6=You're Not The Only Oyster In The Stew
TTITLE7=Sugar Blues
TTITLE8=Shame! Shame! (Everybody Knows Your Game)
TTITLE9=Smashing Thirds
TTITLE10=Zonky
TTITLE11=Everybody Loves My Baby
TTITLE12=Dreams Man
TTITLE13=You Out-Smarted Yourself
TTITLE14=I'm Growing Fonder Of You
TTITLE15=Floatin' Down To Cotton Town
TTITLE16=The Minor Drags
TTITLE17=I'm Gonna Sit Right Down And Write Myself A Letter
EXTD=YEAR: 2004
EXTT0=
EXTT1=
EXTT2=
EXTT3=
EXTT4=
EXTT5=
EXTT6=
EXTT7=
EXTT8=
EXTT9=
EXTT10=
EXTT11=
EXTT12=
EXTT13=
EXTT14=
EXTT15=
EXTT16=
EXTT17=
PLAYORDER=
